<svg xmlns="http://www.w3.org/2000/svg" version="1.1" xmlns:xlink="http://www.w3.org/1999/xlink" xmlns:svgjs="http://svgjs.com/svgjs" width="1000" height="1000"><style>
    #light-icon {
      display: inline;
    }
    #dark-icon {
      display: none;
    }

    @media (prefers-color-scheme: dark) {
      #light-icon {
        display: none;
      }
      #dark-icon {
        display: inline;
      }
    }
  </style><g id="light-icon"><svg xmlns="http://www.w3.org/2000/svg" version="1.1" xmlns:xlink="http://www.w3.org/1999/xlink" xmlns:svgjs="http://svgjs.com/svgjs" width="1000" height="1000"><rect width="1000" height="1000" rx="200" ry="200" fill="#0f172a"></rect><g transform="matrix(33.333333333333336,0,0,33.333333333333336,99.89147456487018,100)"><svg xmlns="http://www.w3.org/2000/svg" version="1.1" xmlns:xlink="http://www.w3.org/1999/xlink" xmlns:svgjs="http://svgjs.com/svgjs" width="24" height="24"><svg width="24" height="24" viewBox="0 0 24 24" fill="none" xmlns="http://www.w3.org/2000/svg">
<path d="M20.354 15.354C18.7172 16.0122 16.9231 16.1748 15.1946 15.8217C13.4662 15.4686 11.8796 14.6153 10.6322 13.3678C9.38472 12.1204 8.53139 10.5338 8.17827 8.80536C7.82514 7.0769 7.98779 5.28278 8.64599 3.646C6.7077 4.42673 5.10135 5.85739 4.10232 7.69272C3.10328 9.52805 2.77378 11.6537 3.17031 13.7054C3.56683 15.757 4.66467 17.6069 6.27565 18.9378C7.88662 20.2687 9.91037 20.9977 12 21C13.7969 21.0001 15.5527 20.4624 17.0415 19.4562C18.5303 18.45 19.684 17.0213 20.354 15.354Z" fill="#FACC15" stroke="#FACC15" stroke-width="2" stroke-linecap="round" stroke-linejoin="round"></path>
<path d="M13 3V5M12 4H14" stroke="#FACC15" stroke-linecap="round" stroke-linejoin="round"></path>
<path d="M16 11V13M15 12H17" stroke="#FACC15" stroke-linecap="round" stroke-linejoin="round"></path>
<path fill-rule="evenodd" clip-rule="evenodd" d="M18.5 4C18.592 3.99997 18.6813 4.02732 18.7542 4.07779C18.8271 4.12826 18.8794 4.19901 18.9029 4.27901L19.3942 5.95008L20.7917 6.67536C20.855 6.70828 20.9076 6.75562 20.9442 6.81263C20.9807 6.86963 21 6.9343 21 7.00012C21 7.06595 20.9807 7.13062 20.9442 7.18762C20.9076 7.24463 20.855 7.29197 20.7917 7.32489L19.3942 8.05054L18.9025 9.72124C18.8789 9.80116 18.8266 9.87183 18.7538 9.92225C18.681 9.97267 18.5917 10 18.4998 10C18.4079 10 18.3186 9.97267 18.2458 9.92225C18.1729 9.87183 18.1207 9.80116 18.0971 9.72124L17.6058 8.05017L16.2083 7.32489C16.145 7.29197 16.0924 7.24463 16.0558 7.18762C16.0193 7.13062 16 7.06595 16 7.00012C16 6.9343 16.0193 6.86963 16.0558 6.81263C16.0924 6.75562 16.145 6.70828 16.2083 6.67536L17.6058 5.94971L18.0975 4.27901C18.121 4.19907 18.1732 4.12837 18.246 4.07791C18.3188 4.02745 18.4081 4.00006 18.5 4Z" fill="#FACC15"></path>
</svg></svg></g></svg></g><g id="dark-icon"><svg xmlns="http://www.w3.org/2000/svg" version="1.1" xmlns:xlink="http://www.w3.org/1999/xlink" xmlns:svgjs="http://svgjs.com/svgjs" width="1000" height="1000"><g transform="matrix(41.666666666666664,0,0,41.666666666666664,-0.1364959081013808,0)"><svg xmlns="http://www.w3.org/2000/svg" version="1.1" xmlns:xlink="http://www.w3.org/1999/xlink" xmlns:svgjs="http://svgjs.com/svgjs" width="24" height="24"><svg width="24" height="24" viewBox="0 0 24 24" fill="none" xmlns="http://www.w3.org/2000/svg">
<path d="M20.354 15.354C18.7172 16.0122 16.9231 16.1748 15.1946 15.8217C13.4662 15.4686 11.8796 14.6153 10.6322 13.3678C9.38472 12.1204 8.53139 10.5338 8.17827 8.80536C7.82514 7.0769 7.98779 5.28278 8.64599 3.646C6.7077 4.42673 5.10135 5.85739 4.10232 7.69272C3.10328 9.52805 2.77378 11.6537 3.17031 13.7054C3.56683 15.757 4.66467 17.6069 6.27565 18.9378C7.88662 20.2687 9.91037 20.9977 12 21C13.7969 21.0001 15.5527 20.4624 17.0415 19.4562C18.5303 18.45 19.684 17.0213 20.354 15.354Z" stroke="#FACC15" stroke-width="2" stroke-linecap="round" stroke-linejoin="round"></path>
<path d="M13 3V5M12 4H14" stroke="#FACC15" stroke-linecap="round" stroke-linejoin="round"></path>
<path d="M16 11V13M15 12H17" stroke="#FACC15" stroke-linecap="round" stroke-linejoin="round"></path>
<path fill-rule="evenodd" clip-rule="evenodd" d="M18.5 4C18.592 3.99997 18.6813 4.02732 18.7542 4.07779C18.8271 4.12826 18.8794 4.19901 18.9029 4.27901L19.3942 5.95008L20.7917 6.67536C20.855 6.70828 20.9076 6.75562 20.9442 6.81263C20.9807 6.86963 21 6.9343 21 7.00012C21 7.06595 20.9807 7.13062 20.9442 7.18762C20.9076 7.24463 20.855 7.29197 20.7917 7.32489L19.3942 8.05054L18.9025 9.72124C18.8789 9.80116 18.8266 9.87183 18.7538 9.92225C18.681 9.97267 18.5917 10 18.4998 10C18.4079 10 18.3186 9.97267 18.2458 9.92225C18.1729 9.87183 18.1207 9.80116 18.0971 9.72124L17.6058 8.05017L16.2083 7.32489C16.145 7.29197 16.0924 7.24463 16.0558 7.18762C16.0193 7.13062 16 7.06595 16 7.00012C16 6.9343 16.0193 6.86963 16.0558 6.81263C16.0924 6.75562 16.145 6.70828 16.2083 6.67536L17.6058 5.94971L18.0975 4.27901C18.121 4.19907 18.1732 4.12837 18.246 4.07791C18.3188 4.02745 18.4081 4.00006 18.5 4Z" fill="#FACC15"></path>
</svg></svg></g></svg></g></svg>